# xmcd
# Copyright (C) 1995-1998 Ti Kan
#
# Track frame offsets:
#       150
#       14618
#       33366
#       47576
#       57927
#       73155
#       88560
#       101464
#       113539
#       126936
#       139358
#       158559
#       170686
#
# Disc length: 2325 seconds
#
# Revision: 0
# Processed by: cddbd v1.4PL0 Copyright (c) Steve Scherf et al.
# Submitted via: CD-Transfer v1.0
#
DISCID=ad09130d
DTITLE=Schmidhauser - La Tracks
DYEAR=2003
DGENRE=
TTITLE0=Genuine Rock 'n' Roll
TTITLE1=Blame It On The Moon
TTITLE2=Hollywood Bowl
TTITLE3=Talking 'bout Your Sex Appeal
TTITLE4=Holding Back The Tears
TTITLE5=Driving Through Castilla
TTITLE6=Look Into My Eyes
TTITLE7=Camarero
TTITLE8=I Got The Blues
TTITLE9=Really Perfect
TTITLE10=It's Raining
TTITLE11=Gimme Three Minutes
TTITLE12=S' Hät Alls Es Änd
EXTD=
EXTT0=
EXTT1=
EXTT2=
EXTT3=
EXTT4=
EXTT5=
EXTT6=
EXTT7=
EXTT8=
EXTT9=
EXTT10=
EXTT11=
EXTT12=
PLAYORDER=
